<svg id="Capa_1" enable-background="new 0 0 512 512" height="512" viewBox="0 0 512 512" width="512" xmlns="http://www.w3.org/2000/svg"><g><g><path d="m393.477 151.547v263.953c0 22.091-17.909 40-40 40h-275c-22.091 0-40-17.909-40-40v-368c0-22.091 17.909-40 40-40h171.197c7.968 0 15.608 3.17 21.236 8.809l113.803 114.047c5.612 5.625 8.764 13.246 8.764 21.191z" fill="#f9f8f9"/><path d="m393.477 151.55v17.59h-104.32c-31.45 0-57.04-25.62-57.04-57.1v-104.54h17.56c7.96 0 15.6 3.17 21.23 8.81l113.81 114.05c5.61 5.62 8.76 13.24 8.76 21.19z" fill="#e3e0e4"/><path d="m108.477 455.5h-30c-22.09 0-40-17.91-40-40v-368c0-22.09 17.91-40 40-40h30c-22.09 0-40 17.91-40 40v368c0 22.09 17.91 40 40 40z" fill="#e3e0e4"/><g fill="#a29aa5"><path d="m219.585 157.5h-123.7c-4.142 0-7.5-3.358-7.5-7.5s3.358-7.5 7.5-7.5h123.7c4.142 0 7.5 3.358 7.5 7.5s-3.358 7.5-7.5 7.5z"/><path d="m219.585 337.5h-123.7c-4.142 0-7.5-3.358-7.5-7.5s3.358-7.5 7.5-7.5h123.7c4.142 0 7.5 3.358 7.5 7.5s-3.358 7.5-7.5 7.5z"/><path d="m317.885 217.5h-224c-4.142 0-7.5-3.358-7.5-7.5s3.358-7.5 7.5-7.5h224c4.142 0 7.5 3.358 7.5 7.5s-3.358 7.5-7.5 7.5z"/><path d="m317.885 277.5h-224c-4.142 0-7.5-3.358-7.5-7.5s3.358-7.5 7.5-7.5h224c4.142 0 7.5 3.358 7.5 7.5s-3.358 7.5-7.5 7.5z"/><path d="m390.787 139.14h-101.63c-14.93 0-27.04-12.14-27.04-27.1v-101.82c3.24 1.46 6.23 3.52 8.79 6.09l113.81 114.05c2.55 2.56 4.61 5.54 6.07 8.78z"/></g><ellipse cx="371.966" cy="403" fill="#dc4955" rx="101.511" ry="101.5"/><path d="m453.047 464.07c-18.52 24.56-47.95 40.43-81.08 40.43-56.06 0-101.51-45.44-101.51-101.5 0-33.13 15.87-62.55 40.43-81.07-12.83 16.99-20.43 38.14-20.43 61.07 0 56.06 45.45 101.5 101.51 101.5 22.93 0 44.08-7.6 61.08-20.43z" fill="#c42430"/><g><path d="m411.221 442.244c-5.855 5.855-15.358 5.855-21.213 0l-18.031-18.031-18.031 18.031c-5.855 5.855-15.358 5.855-21.213 0s-5.855-15.358 0-21.213l18.031-18.031-18.031-18.031c-5.855-5.855-5.855-15.358 0-21.213s15.358-5.855 21.213 0l18.031 18.031 18.031-18.031c5.855-5.855 15.358-5.855 21.213 0s5.855 15.358 0 21.213l-18.031 18.031 18.031 18.031c5.855 5.855 5.855 15.359 0 21.213z" fill="#f9f8f9"/></g></g><g><path d="m38.523 111.5c4.143 0 7.5-3.358 7.5-7.5v-56.5c0-17.92 14.579-32.5 32.5-32.5h84.454c4.143 0 7.5-3.358 7.5-7.5s-3.357-7.5-7.5-7.5h-84.454c-26.191 0-47.5 21.309-47.5 47.5v56.5c0 4.142 3.357 7.5 7.5 7.5z"/><path d="m111.977 448h-33.454c-17.921 0-32.5-14.58-32.5-32.5v-276.5c0-4.142-3.357-7.5-7.5-7.5s-7.5 3.358-7.5 7.5v276.5c0 26.191 21.309 47.5 47.5 47.5h33.454c4.143 0 7.5-3.358 7.5-7.5s-3.357-7.5-7.5-7.5z"/><path d="m219.631 142.5h-123.7c-4.143 0-7.5 3.358-7.5 7.5s3.357 7.5 7.5 7.5h123.7c4.143 0 7.5-3.358 7.5-7.5s-3.357-7.5-7.5-7.5z"/><path d="m95.931 322.5c-4.143 0-7.5 3.358-7.5 7.5s3.357 7.5 7.5 7.5h123.7c4.143 0 7.5-3.358 7.5-7.5s-3.357-7.5-7.5-7.5z"/><path d="m317.931 202.5h-224c-4.143 0-7.5 3.358-7.5 7.5s3.357 7.5 7.5 7.5h224c4.143 0 7.5-3.358 7.5-7.5s-3.357-7.5-7.5-7.5z"/><path d="m325.431 270c0-4.142-3.357-7.5-7.5-7.5h-224c-4.143 0-7.5 3.358-7.5 7.5s3.357 7.5 7.5 7.5h224c4.143 0 7.5-3.358 7.5-7.5z"/><path d="m401.023 297.936v-146.389c0-10.002-3.891-19.409-10.955-26.488l-113.804-114.047c-7.085-7.101-16.513-11.012-26.544-11.012h-51.743c-4.143 0-7.5 3.358-7.5 7.5s3.357 7.5 7.5 7.5h51.743c1.686 0 3.338.203 4.944.562v96.475c0 19.08 15.496 34.603 34.543 34.603h96.262c.354 1.595.553 3.235.553 4.908v143.356c-4.6-.594-9.287-.903-14.046-.903-42.952 0-82.033 25.346-99.563 64.571-1.689 3.782.006 8.217 3.788 9.907 3.778 1.688 8.216-.005 9.907-3.787 15.12-33.832 48.825-55.692 85.869-55.692 6.866 0 13.559.747 20.01 2.151.013.003.025.006.038.008 42.231 9.211 73.951 46.888 73.951 91.841 0 51.832-42.168 94-94 94s-94-42.168-94-94c0-2.294.084-4.616.249-6.9.299-4.131-2.808-7.723-6.939-8.021-4.133-.289-7.724 2.808-8.021 6.939-.191 2.643-.288 5.329-.288 7.982 0 16.037 3.483 31.275 9.729 45h-125.729c-4.143 0-7.5 3.358-7.5 7.5s3.357 7.5 7.5 7.5h134.047c19.527 29.501 53.003 49 90.953 49 60.103 0 109-48.897 109-109 0-50.048-33.907-92.319-79.954-105.064zm-131.358-185.899v-86.403l105.78 106.006h-86.237c-10.777-.001-19.543-8.794-19.543-19.603z"/><path d="m320.841 431.638c0 6.011 2.34 11.662 6.588 15.91 8.371 8.726 23.449 8.725 31.82 0l12.728-12.728 12.728 12.728c8.371 8.726 23.449 8.725 31.82 0h-.001c8.727-8.372 8.726-23.449.001-31.82l-12.729-12.728 12.728-12.728c8.727-8.372 8.727-23.449.001-31.82-8.371-8.726-23.449-8.725-31.82 0l-12.728 12.728-12.728-12.728c-8.37-8.725-23.45-8.725-31.819 0-8.727 8.372-8.726 23.449-.001 31.82l12.729 12.728-12.728 12.728c-4.249 4.248-6.589 9.898-6.589 15.91zm17.196-5.304 18.031-18.031c2.929-2.929 2.929-7.678 0-10.606l-18.032-18.032c-2.906-2.788-2.907-7.818.001-10.606 2.924-2.924 7.682-2.924 10.605 0l18.031 18.031c2.93 2.929 7.678 2.929 10.607 0l18.031-18.031c2.924-2.924 7.681-2.924 10.606 0 2.907 2.789 2.907 7.818-.001 10.606l-18.031 18.031c-2.929 2.929-2.929 7.678 0 10.606l18.032 18.032c2.906 2.788 2.906 7.818 0 10.606h-.001c-2.924 2.924-7.682 2.924-10.605 0l-18.031-18.031c-2.93-2.929-7.677-2.929-10.607 0l-18.031 18.031c-2.924 2.924-7.681 2.924-10.606 0-2.907-2.788-2.907-7.817.001-10.606z"/></g></g></svg>